<?xml version="1.0" encoding="UTF-8" standalone="no"?>
<svg xmlns="http://www.w3.org/2000/svg" width="45" height="45">
<rect width="45" height="45" fill="#FFCE9E"/>
<path fill="#FFDC00" stroke="#000" stroke-width="1.5" stroke-linecap="round" d="
M9,36C12.385,35.028 19.115,36.431 22.5,34C25.885,36.431 32.615,35.028 36,36C36,36 37.646,36.542 39,38C38.323,38.972 37.354,38.986 36,38.5C32.615,37.528 25.885,38.958 22.5,37.5C19.115,38.958 12.385,37.528 9,38.5C7.6459,38.986 6.6771,38.972 6,38C7.3541,36.055 9,36 9,36
M15,32C17.5,34.5 27.5,34.5 30,32C30.5,30.5 30,30 30,30C30,27.5 27.5,26 27.5,26C33,24.5 33.5,14.5 22.5,10.5C11.5,14.5 12,24.5 17.5,26C17.5,26 15,27.5 15,30C15,30 14.5,30.5 15,32
M25,8a2.5 2.5 0 1 1-5,0a2.5 2.5 0 1 1 5,0M15,30h15M17.5,26L27.5,26M22.5,15.5v5M20,18h5"/>
</svg>